<?xml version="1.0" standalone="no"?>
<!DOCTYPE svg PUBLIC "-//W3C//DTD SVG 20010904//EN"
 "http://www.w3.org/TR/2001/REC-SVG-20010904/DTD/svg10.dtd">
<svg version="1.0" xmlns="http://www.w3.org/2000/svg"
 width="1080.000000pt" height="1080.000000pt" viewBox="0 0 1080.000000 1080.000000"
 preserveAspectRatio="xMidYMid meet">

<g transform="translate(0.000000,1080.000000) scale(0.100000,-0.100000)"
fill="#000000" stroke="none">
<path d="M0 5400 l0 -5400 5400 0 5400 0 0 5400 0 5400 -5400 0 -5400 0 0
-5400z m5336 3647 c59 -30 150 -100 222 -169 87 -85 236 -326 278 -449 89
-262 98 -498 30 -733 -14 -48 -26 -100 -26 -115 0 -14 -5 -44 -11 -65 -8 -29
-8 -54 2 -98 14 -64 30 -81 99 -109 137 -56 256 -149 290 -226 11 -25 30 -54
42 -64 25 -23 85 -24 112 -4 25 19 93 19 197 -1 145 -27 278 -103 369 -211 81
-96 79 -95 252 -104 163 -8 230 -20 293 -52 71 -36 166 -109 190 -148 14 -21
38 -53 55 -72 35 -40 80 -144 103 -238 24 -94 26 -359 4 -534 -10 -77 -22
-141 -27 -143 -6 -2 -10 -25 -10 -50 0 -61 -9 -92 -26 -92 -10 0 -14 -12 -14
-39 0 -43 -18 -101 -31 -101 -5 0 -9 -11 -9 -25 0 -14 -9 -34 -20 -45 -11 -11
-20 -26 -20 -34 0 -52 -153 -304 -246 -405 -53 -59 -74 -89 -82 -124 -21 -80
-51 -344 -62 -542 -14 -241 -27 -387 -44 -495 -8 -47 -17 -123 -21 -170 -10
-141 -39 -280 -57 -280 -6 0 -8 -6 -5 -12 2 -7 -2 -25 -9 -40 -8 -14 -23 -61
-35 -105 -11 -43 -25 -82 -29 -86 -22 -23 -387 -76 -825 -119 -159 -15 -625
-15 -755 1 -52 6 -176 24 -275 40 -99 16 -229 37 -290 46 -201 31 -309 56
-460 106 -82 28 -154 54 -159 60 -6 5 -17 9 -25 9 -9 0 -28 6 -42 14 -15 8
-65 28 -110 46 -208 80 -461 215 -709 380 -47 31 -114 73 -150 94 -36 21 -94
57 -129 82 -36 24 -69 45 -75 47 -5 2 -2 17 7 37 9 18 17 43 17 55 0 45 -83
134 -243 260 -42 33 -76 64 -76 68 -1 5 17 50 38 100 39 91 126 349 182 542
17 55 52 163 79 240 27 77 67 196 89 265 22 69 54 163 71 210 18 47 45 125 61
174 16 48 32 93 37 100 5 6 13 29 17 51 3 22 17 67 30 100 13 33 55 150 93
260 38 110 79 225 92 255 12 30 28 73 35 95 25 74 212 559 244 630 56 127 133
336 241 655 129 379 183 528 205 566 9 16 28 49 42 74 37 67 105 160 150 205
22 22 90 94 153 160 62 65 131 132 153 149 66 47 173 96 260 117 45 12 89 25
97 30 26 16 123 3 176 -24z"/>
<path d="M5193 8651 c-61 -11 -130 -50 -181 -101 -56 -56 -132 -145 -132 -153
0 -4 -14 -30 -32 -58 -30 -50 -132 -267 -148 -319 -5 -14 -18 -50 -30 -80 -12
-30 -37 -100 -55 -155 -18 -55 -39 -116 -46 -135 -69 -199 -110 -322 -119
-360 -4 -19 -22 -74 -39 -122 -17 -47 -31 -94 -31 -102 0 -9 -5 -24 -10 -34
-10 -17 -130 -378 -205 -617 -20 -66 -50 -158 -65 -205 -16 -47 -40 -125 -55
-175 -15 -49 -31 -99 -35 -110 -5 -11 -21 -60 -35 -110 -15 -49 -35 -115 -45
-145 -47 -144 -90 -288 -90 -298 0 -7 -4 -20 -9 -30 -6 -9 -22 -60 -37 -112
-15 -52 -35 -120 -45 -150 -20 -64 -81 -263 -110 -365 -12 -38 -27 -88 -35
-110 -8 -23 -14 -48 -14 -57 0 -8 -8 -37 -19 -64 -10 -27 -36 -107 -56 -179
-21 -71 -43 -148 -51 -170 -7 -22 -22 -76 -34 -120 -12 -44 -26 -91 -31 -103
-5 -13 -18 -57 -29 -98 -17 -61 -18 -77 -8 -87 7 -7 78 -50 158 -95 80 -46
152 -87 160 -92 46 -27 317 -162 390 -194 126 -56 152 -67 180 -78 14 -6 39
-16 55 -23 17 -7 57 -23 90 -35 33 -13 69 -26 80 -30 19 -8 116 -40 245 -80
134 -43 312 -90 338 -90 13 0 31 -4 40 -9 18 -10 215 -47 322 -62 36 -4 99
-13 140 -19 206 -29 732 -29 903 0 34 6 91 15 127 20 70 9 217 42 291 67 52
16 62 31 79 113 7 30 16 72 22 94 5 21 13 68 18 105 4 36 15 109 23 161 42
263 77 593 112 1055 14 189 18 211 36 225 126 93 195 172 256 292 45 87 110
268 164 453 5 17 20 89 35 160 21 106 26 160 27 290 1 175 -5 203 -61 325 -27
58 -118 146 -175 170 -76 33 -145 50 -207 50 -61 0 -171 -35 -220 -70 -37 -26
-60 -20 -60 15 0 26 -24 93 -58 165 -22 45 -87 116 -133 145 -20 13 -67 33
-106 44 -160 48 -294 13 -420 -108 -18 -17 -36 -31 -41 -31 -4 0 -15 41 -24
91 -26 139 -85 242 -168 294 -48 31 -161 65 -214 65 -22 0 -75 -11 -116 -24
-41 -13 -79 -20 -83 -16 -5 4 -2 27 6 51 13 41 31 119 73 314 9 44 20 107 24
140 4 33 13 100 20 148 18 131 9 483 -14 567 -38 137 -111 250 -196 303 -81
50 -198 74 -287 58z m220 -157 c79 -51 114 -117 153 -289 16 -71 18 -336 4
-475 -18 -168 -82 -485 -121 -595 -6 -16 -17 -60 -24 -97 -8 -37 -18 -75 -23
-85 -5 -10 -13 -35 -16 -57 -4 -21 -23 -71 -43 -110 -91 -182 -136 -346 -184
-666 -6 -41 -14 -81 -18 -89 -4 -8 -29 -20 -56 -28 -28 -8 -81 -24 -120 -35
-97 -28 -185 -57 -207 -69 -28 -15 -24 -74 5 -94 21 -14 31 -13 108 10 135 41
220 65 279 79 151 37 250 59 295 66 28 5 69 11 92 15 l41 7 13 -58 c23 -109
85 -201 177 -262 80 -53 105 -62 171 -62 35 0 65 -6 77 -15 10 -8 29 -15 42
-15 38 0 100 38 119 73 19 36 20 119 3 177 -11 38 -13 103 -4 113 20 19 103
-46 157 -123 29 -42 32 -51 31 -125 0 -68 -5 -87 -27 -126 -59 -100 -243 -240
-387 -293 -158 -58 -259 -91 -355 -113 -102 -24 -326 -60 -415 -68 -137 -11
-186 -43 -160 -105 11 -27 69 -60 104 -60 12 0 63 -18 161 -58 22 -9 75 -37
118 -62 44 -25 88 -50 99 -56 86 -50 315 -257 418 -379 33 -38 167 -219 200
-268 28 -42 60 -55 95 -39 49 22 39 74 -30 162 -20 25 -68 88 -108 140 -74 98
-264 296 -352 367 -76 61 -202 146 -280 188 -38 21 -76 42 -82 48 -17 13 -7
27 20 27 59 0 381 80 508 125 19 8 40 10 45 7 5 -4 24 -30 42 -59 42 -66 106
-125 168 -154 64 -30 210 -34 263 -6 19 9 41 17 49 17 8 0 43 25 77 55 35 30
68 55 74 55 6 0 16 -12 22 -27 57 -154 163 -243 322 -273 l67 -12 0 -55 c0
-55 -7 -146 -35 -473 -33 -382 -88 -788 -137 -1017 -10 -49 -14 -54 -47 -63
-20 -5 -42 -10 -49 -10 -7 0 -20 -4 -30 -9 -29 -15 -240 -50 -377 -62 -246
-22 -661 -12 -855 21 -30 5 -86 14 -125 20 -107 16 -314 61 -445 96 -113 30
-404 123 -460 147 -19 8 -53 22 -75 30 -141 53 -325 136 -343 154 -7 7 -20 13
-27 13 -21 0 -379 181 -395 199 -6 7 -42 28 -81 48 -43 22 -52 38 -41 75 22
72 50 166 65 218 22 74 55 185 71 240 8 25 23 77 35 115 11 39 37 124 56 190
20 66 46 152 57 190 12 39 25 79 29 90 4 11 10 29 13 40 7 29 46 161 66 225
10 30 26 82 36 115 9 33 25 85 35 115 9 30 34 109 54 175 21 66 43 138 50 160
8 22 24 74 36 115 12 41 37 122 56 180 55 173 69 217 128 405 31 99 62 196 70
215 7 19 16 49 20 65 4 17 12 44 19 60 8 17 30 84 51 150 21 66 41 129 46 140
4 11 13 38 19 60 7 22 18 54 26 72 8 17 14 35 14 41 0 5 23 78 51 163 28 85
55 168 59 184 5 17 21 62 35 100 15 39 29 79 32 90 4 18 14 44 60 170 124 333
251 540 368 597 33 15 56 18 127 15 74 -4 93 -8 131 -33z m452 -1525 c56 -16
125 -92 150 -166 39 -112 21 -525 -27 -655 l-10 -27 -97 6 c-53 3 -136 0 -186
-7 -49 -6 -121 -15 -160 -20 -38 -4 -98 -15 -131 -24 -66 -17 -120 -21 -128
-8 -2 4 0 30 5 57 5 28 16 91 24 140 16 95 25 137 57 250 23 80 24 82 73 189
108 237 241 319 430 265z m733 -283 c91 -24 125 -53 173 -144 83 -158 79 -413
-10 -827 -11 -49 -24 -103 -29 -120 -5 -16 -20 -64 -32 -105 -42 -139 -74
-212 -136 -305 -79 -119 -183 -187 -285 -184 -86 2 -176 66 -211 152 -8 19 0
47 13 47 5 0 30 10 54 21 43 20 48 21 98 6 29 -8 79 -21 113 -27 56 -11 64
-10 110 12 63 30 93 85 93 173 1 68 -22 164 -41 176 -9 6 -15 44 -19 118 -3
60 -10 115 -16 123 -6 7 -13 26 -17 41 -9 38 -139 166 -196 194 -25 12 -71 33
-104 47 -48 21 -57 29 -51 43 4 10 16 56 25 103 75 358 238 517 468 456z m684
-317 c169 -36 240 -138 255 -369 6 -101 -10 -233 -48 -400 -21 -91 -81 -284
-105 -337 -8 -17 -14 -36 -14 -43 0 -17 -77 -167 -107 -208 -110 -150 -220
-199 -344 -153 -104 39 -170 127 -192 257 -10 60 -9 71 12 127 51 136 72 194
81 227 5 19 21 78 35 130 14 52 30 118 35 145 6 28 15 73 20 100 12 54 27 172
39 301 8 91 22 114 98 173 72 56 140 70 235 50z m-1253 -375 c10 -9 35 -176
36 -234 l0 -65 -45 3 c-70 6 -161 41 -210 83 -52 43 -101 127 -103 179 -2 33
0 35 38 41 38 7 276 0 284 -7z m401 -607 c0 -29 -5 -58 -12 -65 -23 -23 -98
-7 -98 20 0 17 81 98 97 98 9 0 13 -16 13 -53z"/>
<path d="M6280 3932 c-30 -24 -23 -49 31 -125 48 -68 79 -80 115 -46 32 30 31
41 -12 105 -56 84 -91 101 -134 66z"/>
<path d="M6962 5384 c-56 -28 -116 -89 -138 -141 -28 -66 -9 -144 44 -182 17
-12 73 -33 124 -46 75 -20 100 -22 130 -14 87 23 130 114 107 230 -16 81 -48
133 -99 159 -53 27 -106 25 -168 -6z m133 -128 c11 -16 15 -41 13 -78 l-3 -53
-45 3 c-53 3 -112 20 -122 36 -14 20 -8 34 33 75 50 50 98 57 124 17z"/>
</g>
</svg>
