<?xml version="1.0" standalone="no"?>
<!DOCTYPE svg PUBLIC "-//W3C//DTD SVG 20010904//EN"
 "http://www.w3.org/TR/2001/REC-SVG-20010904/DTD/svg10.dtd">
<svg version="1.0" xmlns="http://www.w3.org/2000/svg"
 width="1080.000000pt" height="1080.000000pt" viewBox="0 0 1080.000000 1080.000000"
 preserveAspectRatio="xMidYMid meet">

<g transform="translate(0.000000,1080.000000) scale(0.100000,-0.100000)"
fill="#000000" stroke="none">
<path d="M0 5400 l0 -5400 5400 0 5400 0 0 5400 0 5400 -5400 0 -5400 0 0
-5400z m5133 3206 c39 -16 82 -61 96 -99 35 -91 -24 -199 -121 -228 -52 -15
-389 -69 -431 -69 l-38 0 6 -152 c3 -84 10 -292 16 -463 5 -170 13 -345 18
-388 14 -128 -15 -204 -85 -227 -49 -17 -95 -5 -132 33 -59 61 -64 90 -98 590
-15 208 -16 270 -6 390 7 78 15 152 18 165 6 20 3 22 -33 22 -21 0 -143 -13
-271 -30 -266 -34 -309 -36 -379 -15 -73 22 -113 69 -113 135 0 58 30 100 89
123 74 30 374 91 601 122 192 27 438 65 514 80 136 27 299 33 349 11z m505
-32 c41 -29 52 -68 72 -271 41 -412 51 -521 61 -628 6 -60 19 -177 30 -260 30
-237 23 -361 -25 -402 -58 -49 -128 -18 -175 79 -32 64 -65 202 -77 321 -4 36
-10 70 -14 77 -5 9 -26 7 -83 -9 -53 -15 -109 -22 -191 -24 l-116 -2 7 -115
c15 -218 7 -267 -48 -295 -115 -60 -192 46 -220 303 -15 139 -7 654 11 705 25
70 89 104 143 75 51 -27 64 -69 77 -248 5 -74 12 -167 16 -206 l6 -71 101 35
c55 19 139 40 186 46 l86 11 -1 65 c-5 412 -4 602 6 645 20 92 41 145 67 165
31 24 51 25 81 4z m923 -177 c19 -12 40 -35 47 -51 30 -62 -14 -116 -129 -158
-72 -26 -255 -68 -299 -68 -18 0 -21 -4 -17 -22 2 -13 17 -81 32 -153 14 -71
28 -131 30 -133 2 -2 55 8 118 22 63 14 135 26 161 26 120 0 196 -49 196 -126
0 -102 -137 -175 -357 -190 l-93 -7 0 -38 c0 -39 26 -188 35 -197 2 -3 51 0
107 7 200 22 344 -37 342 -139 -2 -50 -21 -79 -85 -130 -68 -54 -112 -65 -259
-64 -170 0 -208 18 -275 125 -6 9 -19 28 -29 43 -27 38 -55 129 -66 211 -13
95 -32 431 -36 645 -3 96 -7 193 -10 215 -6 48 20 96 65 119 16 9 94 31 173
50 182 44 297 48 349 13z m-1510 -1797 l30 -30 -6 -202 c-3 -112 -10 -266 -15
-343 -5 -77 -12 -234 -15 -350 -8 -294 -23 -492 -41 -534 -24 -57 -52 -81 -95
-81 -20 0 -50 -7 -65 -15 -44 -23 -115 -19 -155 8 -82 55 -229 275 -429 642
-67 122 -66 127 -47 -183 15 -251 9 -342 -25 -403 -60 -107 -204 -106 -259 4
-38 73 -44 208 -30 667 12 424 27 605 56 659 45 88 152 71 184 -30 6 -19 30
-53 52 -75 59 -57 320 -409 521 -703 l58 -85 0 129 c0 133 49 597 75 711 48
209 128 292 206 214z m718 -16 c85 -44 202 -153 265 -248 58 -87 133 -234 161
-314 37 -106 47 -197 43 -381 -3 -165 -3 -167 -36 -231 -41 -83 -151 -213
-211 -251 -47 -30 -194 -80 -296 -101 -159 -32 -315 60 -315 187 0 20 -6 48
-14 63 -7 15 -23 68 -35 118 -26 112 -27 218 -6 544 9 129 17 301 19 382 4
178 15 204 106 245 59 27 92 32 170 28 61 -3 87 -10 149 -41z m2605 11 c31
-28 28 6 27 -412 -1 -410 17 -687 53 -823 34 -127 34 -166 -4 -221 -16 -24
-30 -50 -30 -57 0 -7 -11 -24 -25 -37 -29 -30 -88 -34 -124 -9 -32 23 -102
100 -126 140 -21 34 -69 100 -172 237 -34 45 -89 132 -122 193 -33 61 -90 155
-127 210 -36 54 -75 116 -85 137 -11 20 -22 37 -25 37 -5 0 -3 -59 18 -395 18
-274 16 -369 -5 -432 -27 -76 -51 -103 -94 -103 -45 0 -90 47 -136 140 l-32
65 0 575 c1 316 4 596 8 621 4 25 17 56 28 68 26 28 74 28 97 -1 9 -12 33 -36
52 -52 81 -71 136 -138 213 -261 44 -71 125 -196 178 -276 53 -80 114 -179
134 -220 21 -41 65 -108 98 -149 l60 -75 -6 69 c-26 286 -30 421 -19 666 12
273 25 347 65 375 31 22 70 18 101 -10z m-1440 1 c51 -21 82 -72 153 -244 103
-249 107 -268 107 -532 0 -307 -24 -405 -138 -565 -83 -115 -151 -150 -284
-143 -112 5 -198 43 -275 120 -105 105 -150 240 -149 448 0 216 40 378 143
587 84 172 176 267 277 288 17 4 32 10 32 15 0 10 60 39 83 40 10 0 33 -6 51
-14z m-4533 -29 c9 -7 23 -26 32 -42 33 -65 38 -174 31 -696 l-7 -506 74 13
c41 7 118 13 171 14 82 0 113 -5 192 -30 51 -17 105 -39 119 -50 30 -24 67
-96 67 -132 0 -73 -69 -152 -142 -163 -34 -5 -65 0 -140 25 l-96 31 -113 -11
c-265 -25 -263 -25 -308 0 -28 16 -48 38 -63 68 -20 43 -21 51 -13 246 5 110
9 336 11 501 2 303 15 545 35 644 14 69 44 101 96 101 21 0 45 -6 54 -13z
m993 -128 c13 -6 32 -27 43 -46 10 -19 33 -43 50 -54 83 -51 181 -233 207
-379 35 -201 29 -436 -14 -574 -18 -56 -32 -79 -73 -121 -44 -43 -63 -54 -119
-70 -135 -36 -251 -5 -349 96 -67 70 -113 153 -135 245 -35 146 -1 461 70 647
71 188 215 303 320 256z m237 -1905 l24 -26 -3 -291 c-3 -313 29 -1044 49
-1127 15 -59 15 -274 1 -325 -24 -84 -97 -123 -192 -104 -46 9 -63 19 -102 60
-26 26 -59 72 -74 101 -15 29 -40 70 -57 91 -33 42 -97 169 -132 262 -13 33
-39 94 -59 135 l-35 75 -1 -40 c-5 -221 -20 -396 -39 -450 -28 -81 -75 -125
-133 -125 -73 1 -97 31 -123 159 -18 90 -16 136 21 496 7 77 18 201 24 275 8
115 30 283 46 368 7 34 45 48 95 33 56 -17 84 -47 103 -112 8 -30 50 -118 92
-195 42 -76 107 -198 144 -270 68 -132 182 -326 207 -354 12 -13 13 -2 7 80
-11 154 -6 995 6 1130 11 119 21 157 44 172 23 16 63 7 87 -18z m4916 -29
c147 -44 237 -224 188 -376 -42 -129 -110 -218 -237 -312 l-58 -41 39 -36 c41
-37 175 -185 332 -365 191 -220 242 -298 278 -421 26 -88 26 -121 2 -158 -27
-40 -57 -55 -112 -56 -79 0 -181 78 -285 220 -102 139 -254 376 -312 488 -35
67 -64 122 -65 122 -1 0 8 -91 21 -202 14 -125 21 -227 17 -267 -10 -111 -48
-173 -117 -192 -32 -8 -46 -7 -76 8 -55 27 -78 79 -118 270 -30 143 -36 194
-41 343 -6 195 15 513 42 644 30 143 78 246 116 246 11 0 39 16 62 35 23 20
62 42 87 50 60 18 175 18 237 0z m-2288 -61 c25 -32 28 -93 7 -152 -24 -68
-55 -275 -76 -512 -11 -124 -29 -299 -40 -390 -11 -96 -20 -227 -20 -313 0
-149 -6 -178 -39 -204 -26 -20 -57 -15 -119 22 -71 41 -146 129 -202 235 -23
45 -66 164 -104 290 -36 118 -83 262 -105 320 l-41 105 3 -370 c3 -500 -10
-576 -97 -583 -107 -9 -119 83 -108 833 7 424 11 536 23 562 14 32 82 93 103
93 28 0 60 -38 103 -123 25 -51 83 -159 128 -242 103 -188 150 -288 208 -440
59 -154 83 -209 90 -198 6 10 24 187 37 376 23 331 91 653 147 697 36 28 77
26 102 -6z m-3519 1 c40 -21 60 -53 60 -98 0 -80 -44 -119 -150 -131 -102 -12
-444 -36 -514 -36 l-69 0 7 -47 c6 -49 26 -318 26 -362 l0 -24 98 7 c113 8
179 -4 212 -39 41 -43 22 -118 -38 -149 -31 -16 -158 -36 -228 -36 l-44 0 0
-217 c0 -120 3 -255 7 -301 l6 -82 36 7 c20 5 110 8 201 8 133 0 174 -3 210
-18 50 -19 80 -57 80 -102 0 -43 -55 -90 -120 -104 -101 -22 -260 -41 -417
-51 -133 -7 -161 -7 -185 6 -65 34 -76 132 -59 529 7 143 16 377 21 520 10
267 24 424 40 455 7 12 5 28 -6 49 -38 76 19 136 151 160 33 6 166 23 295 37
129 14 237 28 239 30 11 10 115 2 141 -11z m1707 -36 c42 -13 99 -62 119 -100
27 -54 13 -126 -31 -149 -28 -15 -68 -9 -154 21 l-64 23 -27 -31 c-30 -33 -62
-110 -87 -208 -13 -51 -15 -110 -10 -377 3 -177 10 -325 15 -335 9 -15 12 -11
26 22 23 55 95 271 107 323 5 23 23 57 39 75 24 27 35 32 73 32 88 0 134 -64
162 -225 9 -52 26 -142 36 -200 71 -379 73 -415 17 -470 -41 -41 -111 -43
-158 -4 -46 39 -120 203 -120 267 0 19 -5 17 -38 -20 -113 -129 -307 -80 -371
92 -30 80 -40 208 -41 502 0 271 9 346 53 463 79 208 159 302 275 319 50 7
121 -1 179 -20z m2513 21 c62 -18 92 -50 97 -106 5 -43 2 -54 -22 -82 -18 -21
-44 -37 -78 -47 -80 -23 -205 -44 -274 -47 l-63 -3 0 -100 c0 -55 3 -124 6
-152 l7 -53 41 0 c64 -1 110 -15 165 -50 45 -29 51 -38 51 -67 0 -89 -97 -170
-194 -162 -19 2 -38 1 -41 -3 -3 -3 -2 -32 4 -64 6 -33 15 -104 21 -159 5 -55
13 -119 16 -143 l6 -43 62 7 c33 4 83 15 109 25 64 25 100 24 146 -5 55 -35
81 -72 81 -117 0 -52 -38 -95 -100 -113 -26 -8 -65 -26 -87 -40 -80 -53 -348
-135 -382 -117 -23 13 -68 71 -82 107 -12 32 -40 238 -45 334 -33 573 -35 641
-25 810 5 96 15 198 21 227 14 62 48 103 87 103 15 1 98 16 183 35 164 35 233
41 290 25z m827 -2 c51 -21 83 -59 83 -96 0 -49 -13 -67 -72 -92 -43 -18 -77
-23 -194 -28 -78 -2 -147 -8 -152 -11 -7 -4 0 -67 18 -171 24 -147 29 -165 46
-164 11 1 66 10 124 19 58 9 127 14 154 11 108 -12 172 -97 130 -175 -28 -52
-87 -78 -209 -91 -55 -6 -122 -8 -149 -4 l-48 6 6 -113 c11 -188 38 -554 42
-558 2 -2 23 2 48 8 134 34 236 -14 236 -111 0 -93 -46 -129 -200 -158 -171
-33 -282 -16 -314 49 -42 86 -62 348 -73 966 -8 492 -8 468 1 557 5 53 15 88
30 110 21 33 23 33 106 35 47 1 103 6 125 12 59 13 230 13 262 -1z m-2799 -82
c18 -17 26 -43 37 -117 16 -107 50 -451 65 -672 6 -82 15 -181 20 -220 12 -96
12 -223 0 -269 -22 -77 -111 -112 -181 -71 -43 25 -57 67 -79 223 -18 127 -20
182 -16 600 4 422 6 462 23 497 31 64 82 76 131 29z"/>
<path d="M5577 6298 c5 -40 8 -262 8 -493 0 -385 -2 -424 -19 -468 -10 -27
-16 -51 -13 -53 3 -3 38 4 79 16 40 12 101 30 136 40 70 20 98 41 142 110 29
46 30 50 30 176 0 231 -28 337 -137 521 -89 148 -156 223 -203 223 l-30 0 7
-72z"/>
<path d="M6795 6339 c-45 -40 -96 -140 -141 -277 -43 -130 -64 -258 -64 -388
0 -209 69 -322 197 -327 41 -2 48 2 78 36 18 20 49 70 69 110 31 62 38 86 45
172 5 56 5 155 0 221 -7 109 -14 139 -67 300 -33 98 -64 180 -70 182 -6 2 -27
-11 -47 -29z"/>
<path d="M3320 6155 c-45 -116 -72 -396 -51 -519 28 -159 121 -236 183 -153
36 47 48 90 55 192 11 176 -44 363 -139 469 l-36 41 -12 -30z"/>
<path d="M8317 4310 c-20 -4 -40 -10 -44 -14 -4 -3 -5 -32 -4 -64 2 -31 6
-128 10 -214 3 -86 9 -160 13 -163 21 -22 155 129 209 235 26 51 33 78 34 123
0 52 -3 61 -28 83 -24 20 -38 24 -90 23 -34 -1 -79 -5 -100 -9z"/>
</g>
</svg>
