<?xml version="1.0" standalone="no"?>
<!DOCTYPE svg PUBLIC "-//W3C//DTD SVG 20010904//EN"
 "http://www.w3.org/TR/2001/REC-SVG-20010904/DTD/svg10.dtd">
<svg version="1.0" xmlns="http://www.w3.org/2000/svg"
 width="1080.000000pt" height="1080.000000pt" viewBox="0 0 1080.000000 1080.000000"
 preserveAspectRatio="xMidYMid meet">

<g transform="translate(0.000000,1080.000000) scale(0.100000,-0.100000)"
fill="#000000" stroke="none">
<path d="M0 5400 l0 -5400 5400 0 5400 0 0 5400 0 5400 -5400 0 -5400 0 0
-5400z m9690 1918 c48 -33 69 -66 82 -130 31 -150 -58 -464 -215 -758 -163
-306 -354 -559 -604 -801 -111 -107 -343 -304 -403 -342 -38 -23 -18 -117 32
-149 37 -24 67 -27 114 -13 82 24 221 147 350 308 103 128 186 217 215 232 46
24 87 19 121 -15 28 -28 30 -35 26 -83 -11 -120 -155 -345 -343 -532 -134
-135 -255 -221 -373 -268 -69 -28 -88 -31 -182 -32 -96 0 -110 3 -160 28 -95
49 -148 112 -180 214 l-17 56 -39 -35 c-69 -62 -189 -143 -275 -186 -125 -62
-228 -85 -358 -80 -96 3 -113 6 -172 35 -124 61 -210 187 -228 331 -5 40 -8
80 -6 90 2 9 6 45 9 78 l5 62 -67 4 c-37 3 -74 8 -83 12 -12 5 -29 -13 -70
-76 -71 -109 -193 -261 -255 -319 -257 -238 -500 -282 -629 -112 -55 72 -69
128 -62 257 3 61 12 133 21 161 8 27 14 51 12 53 -2 2 -22 -6 -43 -16 -108
-56 -263 -71 -343 -35 -25 11 -58 35 -75 52 -27 29 -30 39 -30 94 0 47 6 75
26 115 14 28 25 52 23 52 -12 0 -175 -140 -244 -209 -136 -137 -210 -244 -310
-448 -107 -215 -125 -235 -224 -241 -126 -7 -181 72 -154 223 l8 41 -88 -43
c-190 -94 -337 -77 -414 48 -17 26 -31 66 -35 97 l-6 51 -64 -69 c-115 -124
-242 -191 -363 -192 -39 0 -81 6 -105 16 -51 21 -118 87 -140 136 l-18 39 -50
-55 c-78 -86 -203 -181 -305 -231 -83 -42 -101 -47 -177 -51 -101 -5 -157 12
-217 66 -69 63 -83 101 -82 227 0 97 4 121 33 205 20 59 59 139 102 209 38 63
67 116 65 118 -2 2 -44 -36 -94 -85 -110 -109 -206 -237 -301 -401 -135 -234
-180 -281 -266 -281 -90 0 -155 74 -155 178 0 115 109 363 268 610 l17 27 -33
-27 c-18 -16 -78 -70 -133 -120 -167 -156 -268 -292 -375 -509 -107 -216 -137
-249 -226 -249 -137 0 -180 134 -119 372 101 391 360 930 559 1164 73 86 103
104 173 104 46 0 55 -4 90 -39 34 -33 39 -45 39 -82 -1 -63 -16 -97 -122 -286
-104 -182 -131 -233 -124 -233 2 0 46 48 97 108 347 399 506 498 623 389 70
-67 61 -137 -43 -327 -74 -135 -111 -206 -111 -214 0 -3 78 73 173 168 175
176 326 305 407 347 66 35 152 33 208 -4 52 -34 82 -91 82 -154 0 -59 -36
-124 -162 -293 -184 -247 -286 -423 -296 -506 -4 -37 -1 -44 21 -59 56 -36
153 24 276 171 120 144 238 307 276 383 94 189 279 416 420 516 268 191 534
172 634 -45 32 -72 34 -187 4 -271 l-21 -55 34 -37 c50 -55 47 -86 -22 -183
-63 -88 -121 -201 -130 -252 -14 -71 35 -112 106 -91 21 7 63 31 92 54 50 39
78 71 223 255 28 34 81 113 118 174 150 242 254 365 340 401 104 43 217 -12
217 -107 0 -57 -19 -93 -105 -198 -78 -95 -116 -151 -169 -245 -25 -46 -19
-41 81 62 210 218 504 444 617 474 102 28 192 -59 172 -167 -8 -41 -50 -85
-165 -174 -124 -95 -165 -171 -98 -178 39 -5 97 26 211 113 54 41 106 77 116
80 19 6 100 164 155 302 20 50 51 108 68 128 70 80 204 62 243 -31 39 -92 -4
-243 -155 -541 -126 -250 -152 -314 -159 -386 -7 -86 29 -118 97 -83 56 30
220 228 304 370 l42 70 -3 95 c-6 170 38 308 132 424 137 167 296 112 296
-103 0 -109 -38 -272 -80 -347 -18 -30 -18 -31 2 -36 17 -5 114 14 121 24 2 2
34 51 71 108 38 56 111 148 164 203 221 230 455 323 633 251 51 -20 123 -101
143 -160 22 -66 20 -176 -5 -259 -77 -255 -299 -462 -546 -511 -76 -15 -89
-15 -154 -1 l-71 16 -14 -34 c-31 -75 -7 -156 58 -190 48 -26 157 -23 227 5
78 32 206 117 285 192 38 35 105 111 150 169 67 86 90 126 130 225 131 322
401 790 634 1100 231 307 439 496 602 546 54 16 136 10 170 -13z"/>
<path d="M9323 6846 c-66 -68 -227 -305 -330 -486 -149 -260 -333 -633 -320
-646 6 -6 223 220 293 306 145 178 269 368 359 550 83 167 115 250 115 299 0
38 -2 41 -27 41 -20 0 -43 -17 -90 -64z"/>
<path d="M4081 5887 c-57 -28 -156 -125 -211 -207 -100 -147 -174 -340 -154
-398 13 -38 51 -54 96 -42 45 13 91 49 157 125 47 53 51 63 46 95 -5 33 0 41
70 119 119 132 175 270 129 315 -22 23 -82 20 -133 -7z"/>
<path d="M7830 5892 c-46 -22 -167 -143 -213 -212 -37 -55 -37 -55 -14 -63 76
-29 238 57 287 152 31 62 34 97 11 120 -25 25 -27 25 -71 3z"/>
</g>
</svg>
