<?xml version="1.0" standalone="no"?>
<!DOCTYPE svg PUBLIC "-//W3C//DTD SVG 20010904//EN"
 "http://www.w3.org/TR/2001/REC-SVG-20010904/DTD/svg10.dtd">
<svg version="1.0" xmlns="http://www.w3.org/2000/svg"
 width="1080.000000pt" height="1080.000000pt" viewBox="0 0 1080.000000 1080.000000"
 preserveAspectRatio="xMidYMid meet">

<g transform="translate(0.000000,1080.000000) scale(0.100000,-0.100000)"
fill="#000000" stroke="none">
<path d="M0 5400 l0 -5400 5400 0 5400 0 0 5400 0 5400 -5400 0 -5400 0 0
-5400z m4506 4725 c44 -38 56 -56 72 -108 11 -34 23 -80 27 -102 4 -21 6 -350
6 -730 -1 -693 3 -827 45 -1510 8 -137 22 -320 31 -405 20 -198 23 -535 5
-610 -7 -30 -17 -118 -22 -195 -33 -523 -32 -507 -18 -516 7 -5 16 -9 20 -9
11 0 20 78 22 189 l1 106 55 110 55 110 1 235 c1 179 5 252 17 307 33 144 94
253 141 253 20 0 50 -16 162 -87 63 -41 183 -176 237 -268 22 -38 65 -109 96
-156 31 -48 66 -104 79 -125 48 -80 41 -77 113 -47 60 26 73 28 214 28 146 0
151 -1 198 -28 33 -20 70 -31 125 -37 42 -5 91 -12 107 -15 28 -6 38 2 130 92
196 192 313 263 614 371 43 15 44 15 62 -9 10 -13 26 -44 35 -69 9 -25 29 -76
44 -115 22 -58 27 -88 28 -175 3 -155 -30 -307 -84 -385 -22 -33 -22 -35 -7
-91 19 -76 22 -356 5 -489 -37 -277 -69 -384 -151 -505 -20 -30 -40 -60 -43
-65 -6 -10 39 -79 127 -197 68 -90 120 -203 148 -323 38 -164 43 -226 20 -254
-31 -38 -57 -21 -97 65 -20 41 -36 80 -36 86 0 6 -3 9 -6 6 -3 -3 2 -29 12
-58 29 -88 0 -240 -45 -240 -24 0 -101 92 -133 160 -71 152 -94 197 -122 238
-18 26 -47 72 -65 102 -30 51 -71 90 -112 105 -19 7 -33 -41 -23 -83 11 -44
54 -143 76 -172 26 -36 117 -345 125 -428 5 -52 3 -66 -12 -82 -25 -27 -50
-25 -74 6 -32 41 -117 221 -151 321 -33 98 -71 175 -127 261 -48 72 -65 80
-110 50 l-35 -23 6 -92 c7 -99 -1 -132 -39 -157 -19 -13 -23 -26 -27 -93 -4
-71 -9 -87 -49 -157 -24 -43 -57 -88 -73 -100 -15 -11 -46 -37 -67 -57 l-39
-36 3 -77 c2 -72 0 -78 -23 -96 -30 -23 -68 -25 -113 -6 l-33 13 4 -33 c6 -53
-6 -83 -41 -104 -20 -12 -38 -34 -45 -54 -15 -40 -49 -67 -105 -86 -21 -6 -41
-19 -43 -29 -23 -73 -70 -121 -121 -121 -12 0 -32 -13 -45 -30 -13 -17 -33
-43 -46 -59 -17 -22 -43 -36 -112 -57 -87 -26 -93 -30 -167 -106 -42 -43 -82
-78 -87 -78 -14 0 -46 56 -46 80 0 10 10 44 22 75 16 42 32 65 61 86 22 16 46
29 53 29 18 0 51 46 59 80 8 37 49 70 87 70 20 0 45 13 77 40 26 22 53 40 59
40 7 0 24 14 39 31 16 17 39 36 53 41 23 9 20 12 -59 53 -105 55 -129 77 -208
199 -35 54 -66 96 -69 93 -3 -3 -1 -22 5 -44 26 -91 5 -143 -56 -143 -30 0
-33 -3 -33 -29 0 -17 -10 -42 -22 -56 -31 -35 -75 -36 -120 -2 -19 15 -38 24
-41 20 -4 -3 -7 -23 -7 -43 0 -26 -8 -45 -26 -65 -28 -30 -60 -97 -104 -217
-61 -167 -63 -283 -11 -662 21 -150 21 -164 7 -260 -23 -156 -29 -301 -17
-411 35 -313 43 -437 38 -615 -5 -204 -19 -275 -80 -429 -37 -96 -52 -111 -93
-93 -26 13 -27 13 -20 86 4 40 -1 210 -10 377 -15 275 -25 1026 -16 1214 7
142 -9 1843 -18 1935 -5 52 -12 167 -15 255 -3 88 -10 219 -15 290 -16 226
-32 1129 -23 1310 8 171 5 289 -15 510 -6 66 -14 217 -17 335 -5 224 -17 424
-35 595 -30 284 -33 576 -15 1400 8 351 7 388 -11 480 -32 170 -22 457 17 496
28 28 46 24 105 -26z m-200 -8226 c75 -36 157 -150 157 -217 0 -46 -33 -113
-69 -141 l-27 -21 29 -41 c15 -23 33 -43 39 -46 7 -2 12 -10 12 -17 0 -7 10
-26 22 -43 45 -60 -3 -136 -65 -102 -15 7 -56 47 -93 89 -36 41 -112 118 -168
170 -113 106 -130 137 -119 214 8 52 53 118 105 153 44 30 119 31 177 2z
m-118 -481 c7 -7 12 -31 12 -54 0 -24 4 -54 10 -68 9 -24 13 -26 78 -24 54 1
80 -4 117 -22 53 -26 115 -97 140 -164 22 -57 10 -97 -48 -159 -35 -38 -51
-47 -101 -57 -94 -19 -156 4 -156 58 0 28 26 62 47 62 23 0 63 47 63 74 0 43
-27 48 -118 19 -102 -32 -144 -27 -173 20 -38 60 -10 238 47 300 26 28 62 35
82 15z"/>
<path d="M5025 7038 c-2 -7 -10 -35 -18 -63 -8 -27 -25 -84 -38 -125 -29 -95
-29 -176 0 -250 27 -69 37 -166 22 -211 -6 -19 -24 -50 -41 -69 -37 -43 -40
-64 -7 -49 58 27 107 -35 69 -88 -11 -16 -31 -61 -44 -101 -24 -71 -24 -72 -3
-52 31 29 72 25 136 -15 32 -19 96 -46 144 -60 101 -30 242 -116 273 -168 11
-17 32 -70 47 -117 73 -222 111 -317 150 -371 18 -26 41 -61 50 -79 16 -30 17
-31 38 -15 12 8 36 25 53 35 25 17 34 33 49 88 23 85 77 237 103 288 25 48
105 125 161 153 69 36 148 49 326 55 156 5 259 -1 326 -19 l26 -6 -1 83 c-1
80 0 85 37 137 41 59 44 75 22 117 -19 37 -19 87 0 124 l16 30 -42 0 c-22 0
-54 8 -70 17 -36 21 -39 18 -70 -75 -31 -93 -78 -116 -131 -65 -15 15 -28 33
-28 41 0 8 -18 32 -40 52 -38 35 -40 40 -40 97 0 71 19 97 77 107 76 13 134
30 144 43 8 9 6 19 -5 35 -18 25 -21 64 -6 73 5 3 15 15 21 27 15 27 -2 17
-76 -47 -126 -110 -218 -202 -242 -243 -26 -45 -27 -78 -7 -273 9 -93 -1 -109
-71 -109 -77 0 -85 12 -85 118 0 93 -7 116 -33 106 -43 -16 -49 -165 -9 -221
26 -37 27 -51 6 -81 -11 -16 -25 -22 -55 -22 -21 0 -39 -4 -39 -8 0 -13 -45
-31 -58 -23 -26 16 -35 74 -40 244 -5 186 -9 200 -44 141 -11 -19 -20 -70 -27
-144 -8 -88 -17 -132 -40 -186 -16 -39 -40 -108 -55 -155 -29 -94 -60 -153
-79 -146 -7 2 -18 16 -25 31 -11 23 -12 49 -3 143 10 99 19 136 64 257 47 127
52 146 46 194 -4 29 -9 56 -12 59 -18 17 -62 -52 -116 -179 -93 -220 -102
-234 -121 -182 -13 34 -13 170 1 236 14 69 45 162 70 211 35 67 19 72 -42 14
-55 -53 -98 -112 -157 -217 -40 -71 -85 -120 -111 -120 -28 0 -51 58 -51 129
0 72 32 182 70 245 31 49 32 73 5 96 -13 11 -15 7 -15 -21 -1 -43 -15 -67 -65
-110 -67 -58 -91 -70 -119 -59 -18 7 -34 4 -63 -10 -21 -10 -54 -21 -74 -25
-66 -12 -89 46 -40 100 22 24 41 59 51 95 6 21 2 41 -16 77 -40 82 -27 150 27
139 16 -3 29 -3 29 1 0 3 -21 28 -46 55 -43 46 -46 53 -41 90 11 85 59 88 138
7 56 -57 66 -58 16 -2 -18 21 -55 75 -82 121 -48 81 -62 94 -70 70z m161 -845
c6 -56 4 -73 -12 -102 -23 -43 -62 -60 -99 -43 -21 10 -25 18 -25 54 0 46 39
142 61 151 8 3 26 6 41 6 25 1 27 -2 34 -66z m1680 -99 c5 -28 2 -42 -17 -67
-13 -18 -45 -65 -71 -104 -57 -87 -77 -92 -138 -37 -55 50 -63 94 -24 136 32
33 85 64 154 90 72 27 88 24 96 -18z"/>
<path d="M5121 6174 c-17 -38 -15 -78 5 -70 9 3 18 6 20 6 8 0 4 79 -5 84 -4
3 -13 -6 -20 -20z"/>
<path d="M5080 6839 c0 -8 14 -28 30 -44 39 -37 39 -15 0 27 -20 22 -30 28
-30 17z"/>
<path d="M6957 6800 c-100 -50 -162 -88 -184 -112 l-22 -23 45 0 c37 1 50 7
82 38 60 59 92 46 92 -37 -1 -61 -12 -115 -36 -177 -16 -44 -16 -49 -1 -82 9
-19 17 -40 17 -47 0 -26 20 5 44 68 19 52 27 97 33 197 8 135 7 205 -5 205 -4
0 -33 -13 -65 -30z"/>
<path d="M5296 6643 c7 -26 34 -56 43 -48 4 4 -38 75 -45 75 -2 0 -1 -12 2
-27z"/>
<path d="M5888 6135 c-22 -35 -90 -267 -98 -337 -13 -109 -13 -138 0 -118 5 8
10 26 10 40 0 14 16 70 36 125 48 137 66 210 62 259 -2 22 -6 36 -10 31z"/>
<path d="M5153 5774 c-38 -59 -12 -127 54 -140 26 -5 37 -1 59 21 23 23 26 32
21 68 -7 49 -37 76 -84 77 -24 0 -37 -7 -50 -26z"/>
<path d="M4980 5764 c-41 -17 -80 -69 -80 -106 0 -35 20 -89 31 -82 5 3 6 -1
4 -9 -7 -18 17 -38 91 -76 94 -49 164 -56 274 -30 50 12 101 29 112 39 20 16
20 18 4 67 -30 90 -77 107 -99 37 -27 -83 -81 -113 -171 -94 -39 8 -67 22 -98
49 -38 34 -43 43 -42 79 1 23 12 60 28 87 14 26 26 49 26 51 0 9 -47 1 -80
-12z"/>
<path d="M4712 5683 c-25 -10 -42 -62 -42 -128 0 -107 41 -175 106 -175 50 0
62 31 41 102 -8 29 -25 85 -36 124 -12 42 -28 74 -37 78 -8 3 -16 6 -17 5 -1
0 -8 -3 -15 -6z"/>
<path d="M6496 5581 c-4 -5 -1 -13 5 -17 8 -4 9 -26 5 -65 -8 -64 -4 -69 43
-45 30 16 101 90 101 106 0 14 -12 17 -87 25 -36 3 -64 2 -67 -4z"/>
<path d="M6299 5532 c-52 -24 -108 -76 -124 -116 l-15 -34 48 -11 c50 -10 62
-4 62 32 0 23 37 96 63 125 24 26 16 27 -34 4z"/>
<path d="M6720 5412 c-79 -83 -254 -161 -454 -202 -104 -21 -123 -20 -168 11
-31 22 -38 23 -38 6 0 -7 9 -18 20 -25 11 -7 20 -23 20 -37 0 -22 -13 -31
-102 -74 -102 -49 -188 -111 -188 -135 0 -17 86 -126 113 -144 12 -8 43 -35
68 -59 35 -34 51 -43 71 -39 36 6 119 50 158 83 31 25 41 28 118 29 71 1 87 5
96 20 23 40 26 68 8 97 -20 34 -95 77 -133 77 -15 0 -49 15 -75 33 -39 27 -50
40 -52 66 -3 29 0 33 43 52 41 18 52 19 108 9 153 -28 205 -23 267 29 39 32
174 224 169 240 -2 5 -24 -11 -49 -37z"/>
<path d="M5450 5380 c-8 -5 -40 -15 -70 -21 -93 -19 -98 -25 -48 -61 24 -17
49 -37 56 -46 17 -22 15 -73 -4 -101 -23 -32 -96 -61 -155 -61 -28 0 -59 -5
-71 -11 -20 -11 -20 -11 3 -35 12 -13 31 -24 41 -24 11 0 40 -21 66 -46 26
-25 61 -57 79 -71 18 -13 44 -45 58 -69 l26 -44 47 25 c26 13 66 42 89 63 l42
39 -29 47 c-17 26 -39 73 -50 105 -17 53 -18 67 -8 144 9 69 9 94 -2 127 -7
22 -17 40 -21 40 -4 0 -13 2 -21 5 -7 3 -20 0 -28 -5z"/>
<path d="M4754 5343 c-31 -22 -36 -56 -30 -187 4 -80 3 -152 -3 -184 -13 -67
-2 -95 36 -90 23 3 29 12 50 73 12 39 34 95 47 125 14 30 30 82 36 115 14 69
5 105 -33 130 -29 19 -87 29 -103 18z"/>
<path d="M4835 4874 c-14 -15 -25 -34 -25 -43 0 -8 26 -41 58 -71 31 -31 67
-71 80 -88 36 -50 70 -39 100 31 30 71 5 135 -68 172 -66 33 -114 33 -145 -1z"/>
<path d="M6840 4859 c5 -18 21 -48 35 -68 14 -20 54 -78 90 -130 67 -97 83
-111 41 -38 -50 89 -72 124 -113 179 -24 31 -43 61 -43 66 0 6 -4 13 -9 17 -6
3 -6 -7 -1 -26z"/>
<path d="M4789 4722 c-14 -12 -23 -31 -24 -53 -2 -19 -6 -48 -10 -65 -5 -23
-2 -35 10 -48 20 -20 43 -15 98 20 46 30 48 57 6 118 -34 51 -46 55 -80 28z"/>
<path d="M5632 4730 c-78 -18 -109 -97 -56 -139 24 -19 40 -21 151 -21 68 0
133 5 143 10 31 16 43 46 29 71 -38 72 -154 106 -267 79z"/>
<path d="M5093 4643 c-31 -12 -11 -56 63 -143 42 -50 90 -101 108 -115 18 -14
45 -47 60 -74 27 -51 95 -109 159 -136 48 -20 71 -71 64 -143 -9 -83 -53 -121
-108 -91 -11 6 -49 55 -84 109 -64 99 -105 140 -105 103 1 -30 23 -60 69 -93
l43 -32 -6 -58 -7 -58 74 -58 c90 -72 123 -116 138 -184 10 -46 13 -50 26 -38
17 18 43 90 36 100 -2 5 -18 8 -34 8 -55 0 -105 82 -79 129 14 26 50 35 103
27 78 -13 82 -13 85 14 5 36 20 50 55 50 35 0 94 34 101 58 3 9 4 31 2 47 -2
17 -8 54 -12 84 -8 64 1 74 62 65 50 -7 79 7 88 40 3 14 16 28 29 31 57 18 89
40 112 79 14 23 36 53 49 65 33 31 41 71 22 115 -24 58 -53 48 -161 -52 -63
-60 -149 -151 -198 -212 -18 -22 -23 -22 -119 -15 -55 4 -116 13 -135 22 -21
8 -50 12 -72 9 -31 -5 -41 -1 -72 28 -29 27 -36 40 -32 61 7 32 -14 50 -75 66
-33 9 -55 25 -96 73 -30 33 -64 73 -77 88 -25 27 -55 40 -76 31z"/>
<path d="M7057 4505 c9 -19 18 -33 21 -31 4 5 -26 66 -33 66 -3 0 3 -16 12
-35z"/>
<path d="M5646 4494 c-20 -19 -20 -29 -1 -48 39 -39 95 -25 95 23 0 24 -5 30
-31 35 -43 8 -46 8 -63 -10z"/>
<path d="M4892 4464 c-28 -14 -63 -39 -77 -56 -40 -47 -31 -118 15 -118 34 0
153 43 177 64 21 18 25 28 19 51 -7 27 -56 85 -73 85 -5 0 -32 -12 -61 -26z"/>
<path d="M4744 4245 c-36 -55 8 -203 86 -288 60 -66 132 -107 157 -91 10 6 24
23 31 37 16 32 3 62 -55 129 -21 24 -60 77 -88 118 -47 70 -91 119 -107 120
-4 0 -15 -11 -24 -25z"/>
<path d="M4155 1721 c-3 -11 -3 -27 2 -34 10 -17 98 -97 106 -97 10 0 37 57
37 77 0 23 -58 62 -103 70 -29 4 -36 2 -42 -16z"/>
</g>
</svg>
