<?xml version="1.0" standalone="yes"?>
<svg xmlns="http://www.w3.org/2000/svg" width="200" height="200">
<path style="fill:#ffe3b3; stroke:none;" d="M0 0L0 200L200 200L200 0L0 0z"/>
<path style="fill:#82725a; stroke:none;" d="M76 11L76 12L79 12L76 11z"/>
<path style="fill:#040303; stroke:none;" d="M76 12L77.0394 53L79 186L73 184L71 180L70 186L76 185L74 189L80 186L80 190L81 190C85.5 179.336 82.1191 163.526 82.2948 152C82.3929 145.559 85.2178 140.662 84 134L88 136L90 133L89 126L90 126C91.2108 131.033 92.9623 134.245 98 136L92 125L97 130L89 116L96 120L95 123C101.92 122.643 104.943 123.456 110 118L112 122L113 116L121 127L122 127C119.766 119.406 118.549 118.323 121 111L126 113L127.79 101L129 73L123 75L123 76L128 74L124 96C112.756 94.5802 107.608 96.933 104 108L96.4113 95.2292L89 91L85 93L88 86L85 88L87 83L87 82L87 70C94.4993 75.7524 95.9049 80.4245 94 89L102 82L99 92L100 92L105 84L102 98L107 85L108 85L108 93L110 93L111 86L112 86L112 91L120 77L98 82C97.0297 79.9241 95.987 77.9568 94.7924 75.9954C84.1213 58.474 82.2117 83.9545 82 93L80 93L79 12L76 12z"/>
<path style="fill:#655947; stroke:none;" d="M79.3333 14.6667L79.6667 15.3333L79.3333 14.6667z"/>
<path style="fill:#82725a; stroke:none;" d="M76 15L77 16L76 15M76 23L77 24L76 23M76 28L77 29L76 28z"/>
<path style="fill:#b3a07e; stroke:none;" d="M79 52L80 53L79 52z"/>
<path style="fill:#655947; stroke:none;" d="M79 53L80 54L79 53M77.3333 57.6667L77.6667 58.3333L77.3333 57.6667z"/>
<path style="fill:#b3a07e; stroke:none;" d="M77 59L78 60L77 59M80 61L81 62L80 61z"/>
<path style="fill:#655947; stroke:none;" d="M80 62L81 63L80 62z"/>
<path style="fill:#82725a; stroke:none;" d="M86 67L86 68L89 68L86 67z"/>
<path style="fill:#b3a07e; stroke:none;" d="M85 68L86 69L85 68z"/>
<path style="fill:#82725a; stroke:none;" d="M89 68L90 69L89 68M90 69L91 70L90 69M87 70L87 71L90 75L91 75L87 70M91 70L92 71L91 70z"/>
<path style="fill:#655947; stroke:none;" d="M78 71L79 72L78 71z"/>
<path style="fill:#ffe3b3; stroke:none;" d="M87 71L85 87C89.7045 82.8519 90.0694 76.9223 89 71L87 71z"/>
<path style="fill:#b3a07e; stroke:none;" d="M78 72L78 77L79 77L78 72z"/>
<path style="fill:#82725a; stroke:none;" d="M84 72L85 73L84 72z"/>
<path style="fill:#655947; stroke:none;" d="M92 72L93 73L92 72z"/>
<path style="fill:#82725a; stroke:none;" d="M126 72L126 73L129 73L126 72z"/>
<path style="fill:#ffe3b3; stroke:none;" d="M90 73L91 74L90 73z"/>
<path style="fill:#82725a; stroke:none;" d="M93 73L94 74L93 73z"/>
<path style="fill:#b3a07e; stroke:none;" d="M124 73L125 74L124 73z"/>
<path style="fill:#82725a; stroke:none;" d="M125 73L126 74L125 73z"/>
<path style="fill:#b3a07e; stroke:none;" d="M86 74L87 75L86 74z"/>
<path style="fill:#040303; stroke:none;" d="M89 74L90 77L91 77L89 74z"/>
<path style="fill:#b3a07e; stroke:none;" d="M91.3333 74.6667L91.6667 75.3333L91.3333 74.6667z"/>
<path style="fill:#82725a; stroke:none;" d="M123 74L124 75L123 74M126.667 74.3333L127.333 74.6667L126.667 74.3333z"/>
<path style="fill:#b3a07e; stroke:none;" d="M129 74L130 75L129 74z"/>
<path style="fill:#655947; stroke:none;" d="M89 75L90 76L89 75z"/>
<path style="fill:#82725a; stroke:none;" d="M92 75L93 76L92 75z"/>
<path style="fill:#655947; stroke:none;" d="M94 75L95 76L94 75z"/>
<path style="fill:#82725a; stroke:none;" d="M119 76L117 81L121 78L125 80L126 80L125 75L119 76z"/>
<path style="fill:#655947; stroke:none;" d="M122 75L123 76L122 75z"/>
<path style="fill:#b3a07e; stroke:none;" d="M125 75L126 76L125 75z"/>
<path style="fill:#ffe3b3; stroke:none;" d="M124 76L125 85L121 84L120 88L117 82L122 81L121 78C115.645 81.8986 115.005 85.6762 115 92L112 92L112 87L111 87L111 94L108 86L107 86L102 99L105 85L100 93L99 93L102 83L94 90C94.5789 85.2452 96.7858 81.7651 93 78L91 85L91 79L90 79L92 86L89 90L89 86L88 86L85 92L87 90L104 107L112 95.2778L123 92L119 92L119 90L124 88L123 91L124 91L128 75L124 76z"/>
<path style="fill:#655947; stroke:none;" d="M129 75L130 76L129 75M91 76L89 79L91 76z"/>
<path style="fill:#ffe3b3; stroke:none;" d="M92 76L93 77L92 76z"/>
<path style="fill:#655947; stroke:none;" d="M93 76L94 77L93 76z"/>
<path style="fill:#040303; stroke:none;" d="M121 76L122 77L121 76z"/>
<path style="fill:#655947; stroke:none;" d="M78 77L79 78L78 77z"/>
<path style="fill:#82725a; stroke:none;" d="M92 77L93 78L92 77z"/>
<path style="fill:#b3a07e; stroke:none;" d="M93 77L94 78L93 77z"/>
<path style="fill:#82725a; stroke:none;" d="M95 77L96 78L95 77M118 77L119 78L118 77z"/>
<path style="fill:#ffe3b3; stroke:none;" d="M122.667 77.3333L123.333 77.6667L122.667 77.3333z"/>
<path style="fill:#82725a; stroke:none;" d="M130 77L131 78L130 77z"/>
<path style="fill:#655947; stroke:none;" d="M85 78L86 79L85 78z"/>
<path style="fill:#b3a07e; stroke:none;" d="M90 78L91 79L90 78z"/>
<path style="fill:#040303; stroke:none;" d="M91 78L92 84L93 84L91 78z"/>
<path style="fill:#82725a; stroke:none;" d="M94 78L95 79L94 78M96 78L97 79L96 78M116 78L117 79L116 78z"/>
<path style="fill:#655947; stroke:none;" d="M117 78L118 79L117 78z"/>
<path style="fill:#040303; stroke:none;" d="M124 78L117 83L120 87L121 83L125 84L124 78z"/>
<path style="fill:#82725a; stroke:none;" d="M85 79L86 80L85 79z"/>
<path style="fill:#040303; stroke:none;" d="M89 79L88 85L89 79z"/>
<path style="fill:#82725a; stroke:none;" d="M95 79L96 80L95 79M115 79L116 80L115 79z"/>
<path style="fill:#655947; stroke:none;" d="M85 80L86 81L85 80z"/>
<path style="fill:#82725a; stroke:none;" d="M91 80L92 81L91 80M97 80L98 81L97 80M99 80L99 81L109 81L99 80M114 80L115 81L114 80z"/>
<path style="fill:#655947; stroke:none;" d="M116 80L117 81L116 80z"/>
<path style="fill:#b3a07e; stroke:none;" d="M86 81L87 82L86 81z"/>
<path style="fill:#655947; stroke:none;" d="M93 81L94 82L93 81z"/>
<path style="fill:#82725a; stroke:none;" d="M98 81L99 82L98 81M109 81L109 82L112 82L109 81M113 81L114 82L113 81z"/>
<path style="fill:#b3a07e; stroke:none;" d="M116 81L117 82L116 81z"/>
<path style="fill:#82725a; stroke:none;" d="M121 81L122 82L121 81z"/>
<path style="fill:#b3a07e; stroke:none;" d="M124 81L125 82L124 81M90 82L91 83L90 82z"/>
<path style="fill:#655947; stroke:none;" d="M96 82L97 83L96 82z"/>
<path style="fill:#82725a; stroke:none;" d="M100.667 82.3333L101.333 82.6667L100.667 82.3333M112 82L113 83L112 82M115 82L116 83L115 82M117 82L117 83L121 83L117 82M124 82L125 83L124 82M130 82L131 83L130 82M86 83L87 84L86 83z"/>
<path style="fill:#b3a07e; stroke:none;" d="M88 83L89 84L88 83z"/>
<path style="fill:#655947; stroke:none;" d="M91 83L92 84L91 83z"/>
<path style="fill:#82725a; stroke:none;" d="M93 83L94 84L93 83M99 83L100 84L99 83M121.667 83.3333L122.333 83.6667L121.667 83.3333M127 83L128 84L127 83M83 84L84 85L83 84z"/>
<path style="fill:#655947; stroke:none;" d="M85 84L86 85L85 84z"/>
<path style="fill:#82725a; stroke:none;" d="M91.6667 84.3333L92.3333 84.6667L91.6667 84.3333M95 84L96 85L95 84M101 84L102 85L101 84M104 84L105 85L104 84M123.667 84.3333L124.333 84.6667L123.667 84.3333M126 84L127 85L126 84M129 84L130 85L129 84z"/>
<path style="fill:#b3a07e; stroke:none;" d="M85 85L86 86L85 85z"/>
<path style="fill:#82725a; stroke:none;" d="M87 85L87 86L91 87L91 86L87 85M94 85L95 86L94 85M98 85L99 86L98 85z"/>
<path style="fill:#b3a07e; stroke:none;" d="M100 85L101 86L100 85z"/>
<path style="fill:#82725a; stroke:none;" d="M103 85L104 86L103 85M107 85L108 86L107 85M117.667 85.3333L118.333 85.6667L117.667 85.3333M125 85L126 86L125 85M128 85L129 86L128 85z"/>
<path style="fill:#655947; stroke:none;" d="M80 86L81 87L80 86z"/>
<path style="fill:#82725a; stroke:none;" d="M82 86L83 87L82 86M86 86L87 87L86 86z"/>
<path style="fill:#b3a07e; stroke:none;" d="M91.3333 86.6667L91.6667 87.3333L91.3333 86.6667z"/>
<path style="fill:#655947; stroke:none;" d="M100 86L101 87L100 86z"/>
<path style="fill:#82725a; stroke:none;" d="M102 86L103 87L102 86M106 86L107 87L106 86M111 86L112 87L111 86z"/>
<path style="fill:#655947; stroke:none;" d="M120 86L121 87L120 86z"/>
<path style="fill:#82725a; stroke:none;" d="M127 86L128 87L127 86M80 87L81 88L80 87M85 87L86 88L85 87M87 87L88 88L87 87z"/>
<path style="fill:#040303; stroke:none;" d="M89 87L89 89L91 89L91 87L89 87z"/>
<path style="fill:#b3a07e; stroke:none;" d="M97 87L98 88L97 87z"/>
<path style="fill:#82725a; stroke:none;" d="M99 87L100 88L99 87M104 87L105 88L104 87M110 87L111 88L110 87M112.333 87.6667L112.667 88.3333L112.333 87.6667M119 87L120 88L119 87z"/>
<path style="fill:#b3a07e; stroke:none;" d="M80 88L81 89L80 88z"/>
<path style="fill:#82725a; stroke:none;" d="M96 88L97 89L96 88M101 88L102 89L101 88z"/>
<path style="fill:#b3a07e; stroke:none;" d="M122 88L123 89L122 88z"/>
<path style="fill:#82725a; stroke:none;" d="M123 88L124 89L123 88M127 88L128 89L127 88M86 89L87 90L86 89M89.6667 89.3333L90.3333 89.6667L89.6667 89.3333M94.6667 89.3333L95.3333 89.6667L94.6667 89.3333M121 89L122 90L121 89z"/>
<path style="fill:#655947; stroke:none;" d="M122.667 89.3333L123.333 89.6667L122.667 89.3333z"/>
<path style="fill:#82725a; stroke:none;" d="M85 90L86 91L85 90M87.6667 90.3333L88.3333 90.6667L87.6667 90.3333z"/>
<path style="fill:#655947; stroke:none;" d="M103 90L104 91L103 90z"/>
<path style="fill:#82725a; stroke:none;" d="M119 90L123 92L123 91L119 90z"/>
<path style="fill:#655947; stroke:none;" d="M120 90L121 91L120 90z"/>
<path style="fill:#040303; stroke:none;" d="M120 92L123 90L120 92z"/>
<path style="fill:#82725a; stroke:none;" d="M124 90L125 91L124 90M128 90L129 91L128 90z"/>
<path style="fill:#b3a07e; stroke:none;" d="M89 91L90 92L89 91z"/>
<path style="fill:#82725a; stroke:none;" d="M90 91L90 92L93 92L90 91z"/>
<path style="fill:#b3a07e; stroke:none;" d="M93 91L94 92L93 91z"/>
<path style="fill:#82725a; stroke:none;" d="M100 91L101 92L100 91z"/>
<path style="fill:#655947; stroke:none;" d="M105 91L106 92L105 91z"/>
<path style="fill:#b3a07e; stroke:none;" d="M110 91L111 92L110 91z"/>
<path style="fill:#82725a; stroke:none;" d="M112 91L112 92L115 92L112 91z"/>
<path style="fill:#b3a07e; stroke:none;" d="M123 91L124 92L123 91z"/>
<path style="fill:#82725a; stroke:none;" d="M80.6667 92.3333L81.3333 92.6667L80.6667 92.3333M85.6667 92.3333L86.3333 92.6667L85.6667 92.3333z"/>
<path style="fill:#655947; stroke:none;" d="M89 92L90 93L89 92M93 92L94 93L93 92z"/>
<path style="fill:#82725a; stroke:none;" d="M94 92L95 93L94 92z"/>
<path style="fill:#b3a07e; stroke:none;" d="M99 92L100 93L99 92M105 92L106 93L105 92z"/>
<path style="fill:#655947; stroke:none;" d="M110 92L111 93L110 92M123 92L124 93L123 92z"/>
<path style="fill:#82725a; stroke:none;" d="M95 93L96 94L95 93M108 93L108 94L111 94L108 93M86 95L86 96L89 95L88 97L89 97L90 94L86 95M96 94L97 95L96 94z"/>
<path style="fill:#b3a07e; stroke:none;" d="M102 94L103 95L102 94z"/>
<path style="fill:#655947; stroke:none;" d="M104 94L105 95L104 94z"/>
<path style="fill:#b3a07e; stroke:none;" d="M113 94L114 95L113 94z"/>
<path style="fill:#82725a; stroke:none;" d="M114 94L114 95L120 95L114 94z"/>
<path style="fill:#b3a07e; stroke:none;" d="M120 94L121 95L120 94M123 94L124 95L123 94z"/>
<path style="fill:#ffe3b3; stroke:none;" d="M87 95C86.0539 101.33 92.2746 101.383 97 100L97 99L94 98C90.7894 100.134 89.1634 98.5996 89 95L87 95z"/>
<path style="fill:#82725a; stroke:none;" d="M91 95L91 97L93 97L93 95L91 95M97 95L98 96L97 95z"/>
<path style="fill:#655947; stroke:none;" d="M102 95L103 96L102 95z"/>
<path style="fill:#b3a07e; stroke:none;" d="M104 95L105 96L104 95z"/>
<path style="fill:#82725a; stroke:none;" d="M111.667 95.3333L112.333 95.6667L111.667 95.3333z"/>
<path style="fill:#655947; stroke:none;" d="M113 95L114 96L113 95M120 95L121 96L120 95z"/>
<path style="fill:#82725a; stroke:none;" d="M121 95L121 96L124 96L121 95z"/>
<path style="fill:#655947; stroke:none;" d="M128 95L129 96L128 95z"/>
<path style="fill:#82725a; stroke:none;" d="M109.667 96.3333L110.333 96.6667L109.667 96.3333M94.6667 97.3333L95.3333 97.6667L94.6667 97.3333M108 97L109 98L108 97z"/>
<path style="fill:#655947; stroke:none;" d="M116.667 97.3333L117.333 97.6667L116.667 97.3333z"/>
<path style="fill:#82725a; stroke:none;" d="M82 98L82 102L83 102L82 98z"/>
<path style="fill:#b3a07e; stroke:none;" d="M88 98L89 99L88 98z"/>
<path style="fill:#82725a; stroke:none;" d="M96 98L97 99L96 98M102.667 98.3333L103.333 98.6667L102.667 98.3333z"/>
<path style="fill:#b3a07e; stroke:none;" d="M107 98L108 99L107 98z"/>
<path style="fill:#82725a; stroke:none;" d="M111 100L114 99L111 100z"/>
<path style="fill:#655947; stroke:none;" d="M114 98L113 101L114 98z"/>
<path style="fill:#b3a07e; stroke:none;" d="M116.667 98.3333L117.333 98.6667L116.667 98.3333z"/>
<path style="fill:#82725a; stroke:none;" d="M118 98L118 99L121 99L118 98z"/>
<path style="fill:#ffe3b3; stroke:none;" d="M82.3333 99.6667L82.6667 100.333L82.3333 99.6667z"/>
<path style="fill:#655947; stroke:none;" d="M86 99L87 100L86 99z"/>
<path style="fill:#82725a; stroke:none;" d="M89 99L89 100L94 100L89 99z"/>
<path style="fill:#655947; stroke:none;" d="M110 99L111 100L110 99z"/>
<path style="fill:#ffe3b3; stroke:none;" d="M112 99L109 103L113 103L112 99z"/>
<path style="fill:#b3a07e; stroke:none;" d="M113 99L114 100L113 99z"/>
<path style="fill:#655947; stroke:none;" d="M116 99L117 100L116 99z"/>
<path style="fill:#ffe3b3; stroke:none;" d="M117 102L121 100C118.588 98.6452 117.568 99.3511 117 102z"/>
<path style="fill:#82725a; stroke:none;" d="M87 100L88 101L87 100z"/>
<path style="fill:#b3a07e; stroke:none;" d="M88 100L89 101L88 100z"/>
<path style="fill:#82725a; stroke:none;" d="M96 100L97 101L96 100z"/>
<path style="fill:#655947; stroke:none;" d="M98 100L99 101L98 100z"/>
<path style="fill:#82725a; stroke:none;" d="M106 100L107 101L106 100z"/>
<path style="fill:#b3a07e; stroke:none;" d="M110 100L111 101L110 100z"/>
<path style="fill:#82725a; stroke:none;" d="M116 100L117 101L116 100M119 101L119 102L123 101L119 101M89 101L89 102L98 103L89 101M109 101L110 102L109 101z"/>
<path style="fill:#b3a07e; stroke:none;" d="M116 101L117 102L116 101M118 101L119 102L118 101z"/>
<path style="fill:#655947; stroke:none;" d="M120 101L119 103L120 101z"/>
<path style="fill:#ffe3b3; stroke:none;" d="M113 106L113 107C117.925 106.728 120.292 105.092 123 101L113 106z"/>
<path style="fill:#655947; stroke:none;" d="M94 102L95 103L94 102z"/>
<path style="fill:#b3a07e; stroke:none;" d="M105 102L106 103L105 102z"/>
<path style="fill:#82725a; stroke:none;" d="M117 102L119 104L117 102z"/>
<path style="fill:#040303; stroke:none;" d="M118 102L119 103L118 102z"/>
<path style="fill:#82725a; stroke:none;" d="M122 102L123 103L122 102z"/>
<path style="fill:#655947; stroke:none;" d="M91.3333 103.667L91.6667 104.333L91.3333 103.667z"/>
<path style="fill:#82725a; stroke:none;" d="M92 103L92 105L94 105L94 103L92 103z"/>
<path style="fill:#ffe3b3; stroke:none;" d="M94 103L95 108L90 108C92.3734 112.084 95.309 113.766 100 113L98 103L94 103z"/>
<path style="fill:#82725a; stroke:none;" d="M99 103L100 104L99 103z"/>
<path style="fill:#655947; stroke:none;" d="M105 103L106 104L105 103M109 103L110 104L109 103z"/>
<path style="fill:#82725a; stroke:none;" d="M110 103L111 104L110 103z"/>
<path style="fill:#b3a07e; stroke:none;" d="M111 103L112 104L111 103z"/>
<path style="fill:#82725a; stroke:none;" d="M112 103L113 104L112 103z"/>
<path style="fill:#655947; stroke:none;" d="M117 103L118 104L117 103z"/>
<path style="fill:#82725a; stroke:none;" d="M121 103L122 104L121 103M127 103L128 104L127 103z"/>
<path style="fill:#655947; stroke:none;" d="M111 104L112 105L111 104z"/>
<path style="fill:#82725a; stroke:none;" d="M114 104L114 105L117 105L114 104z"/>
<path style="fill:#b3a07e; stroke:none;" d="M117 104L118 105L117 104z"/>
<path style="fill:#82725a; stroke:none;" d="M120 104L121 105L120 104z"/>
<path style="fill:#655947; stroke:none;" d="M94 105L95 106L94 105z"/>
<path style="fill:#82725a; stroke:none;" d="M100 105L101 106L100 105M107 105L103 109L103 110C105.755 108.995 107.681 108.113 107 105z"/>
<path style="fill:#b3a07e; stroke:none;" d="M108 105L109 106L108 105z"/>
<path style="fill:#82725a; stroke:none;" d="M109 106L109 107L114 106L109 106M126 105L127 106L126 105M101 106L102 107L101 106M104 106L105 107L104 106z"/>
<path style="fill:#ffe3b3; stroke:none;" d="M108 106L103 110C105.005 116.906 109.377 114.653 115 114L116 111L108 106z"/>
<path style="fill:#b3a07e; stroke:none;" d="M111.667 106.333L112.333 106.667L111.667 106.333M118 106L119 107L118 106z"/>
<path style="fill:#82725a; stroke:none;" d="M119 106L120 107L119 106z"/>
<path style="fill:#655947; stroke:none;" d="M125 106L126 107L125 106z"/>
<path style="fill:#82725a; stroke:none;" d="M90 107L90 108L95 108L90 107M102.667 107.333L103.333 107.667L102.667 107.333z"/>
<path style="fill:#655947; stroke:none;" d="M111 107L113 109L113 107L111 107z"/>
<path style="fill:#82725a; stroke:none;" d="M113 107L113 108L118 108L113 107z"/>
<path style="fill:#655947; stroke:none;" d="M118 107L119 108L118 107z"/>
<path style="fill:#b3a07e; stroke:none;" d="M125 107L126 108L125 107z"/>
<path style="fill:#82725a; stroke:none;" d="M111 108L112 109L111 108M124 108L125 109L124 108M98 109L99 110L98 109M113.667 109.333L114.333 109.667L113.667 109.333M90.6667 110.333L91.3333 110.667L90.6667 110.333M115 110L116 111L115 110M124 110L125 111L124 110M92 111L93 112L92 111M99 111L100 112L99 111z"/>
<path style="fill:#655947; stroke:none;" d="M102.333 111.667L102.667 112.333L102.333 111.667M116 111L117 112L116 111z"/>
<path style="fill:#82725a; stroke:none;" d="M121 111L121 112L124 112L121 111M125 111L126 112L125 111M85.6667 112.333L86.3333 112.667L85.6667 112.333z"/>
<path style="fill:#655947; stroke:none;" d="M87 112L88 113L87 112z"/>
<path style="fill:#82725a; stroke:none;" d="M93 112L94 113L93 112M116 112L117 113L116 112M124 112L125 113L124 112z"/>
<path style="fill:#ffe3b3; stroke:none;" d="M85 113L88 115L85 113z"/>
<path style="fill:#b3a07e; stroke:none;" d="M87 113L88 114L87 113z"/>
<path style="fill:#82725a; stroke:none;" d="M94 113L95 114L94 113M95 114L95 115L100 116L100 115C98.0399 114.347 97.446 114 100 114L95 114M103 113L104 114L103 113M112.667 113.333L113.333 113.667L112.667 113.333M115 113L116 114L115 113z"/>
<path style="fill:#b3a07e; stroke:none;" d="M121 113L122 114L121 113z"/>
<path style="fill:#82725a; stroke:none;" d="M125 113L125 114L128 115L125 113z"/>
<path style="fill:#655947; stroke:none;" d="M78 114L79 115L78 114z"/>
<path style="fill:#82725a; stroke:none;" d="M85 114L86 115L85 114z"/>
<path style="fill:#040303; stroke:none;" d="M98.6667 114.333L99.3333 114.667L98.6667 114.333z"/>
<path style="fill:#655947; stroke:none;" d="M100 114L101 115L100 114z"/>
<path style="fill:#82725a; stroke:none;" d="M101 114L101 115L106 116L106 115L101 114M111 114L112 115L111 114z"/>
<path style="fill:#655947; stroke:none;" d="M114 114L115 115L114 114z"/>
<path style="fill:#82725a; stroke:none;" d="M118 114L118 115L124 120L127 120L118 114z"/>
<path style="fill:#655947; stroke:none;" d="M121 114L122 115L121 114M126 114L127 115L126 114z"/>
<path style="fill:#b3a07e; stroke:none;" d="M78.3333 115.667L78.6667 116.333L78.3333 115.667z"/>
<path style="fill:#82725a; stroke:none;" d="M84 115L85 116L84 115M86.6667 115.333L87.3333 115.667L86.6667 115.333z"/>
<path style="fill:#ffe3b3; stroke:none;" d="M98 116L98 117L104 117L98 116z"/>
<path style="fill:#040303; stroke:none;" d="M104 115L105 116L104 115z"/>
<path style="fill:#82725a; stroke:none;" d="M109.667 115.333L110.333 115.667L109.667 115.333M117 115L118 116L117 115z"/>
<path style="fill:#040303; stroke:none;" d="M127 115L128 116L127 115z"/>
<path style="fill:#b3a07e; stroke:none;" d="M128 115L129 116L128 115z"/>
<path style="fill:#ffe3b3; stroke:none;" d="M84 116L85 117L84 116z"/>
<path style="fill:#82725a; stroke:none;" d="M89 116L93 120L97 126L97 123L102 124L102 123L94 123L94 122L96 120L89 116z"/>
<path style="fill:#655947; stroke:none;" d="M104.333 116.667L104.667 117.333L104.333 116.667z"/>
<path style="fill:#82725a; stroke:none;" d="M106.667 116.333L107.333 116.667L106.667 116.333z"/>
<path style="fill:#655947; stroke:none;" d="M108 116L109 117L108 116z"/>
<path style="fill:#82725a; stroke:none;" d="M113.667 116.333L114.333 116.667L113.667 116.333M127 116L130 118L130 117L127 116z"/>
<path style="fill:#655947; stroke:none;" d="M128 116L129 117L128 116z"/>
<path style="fill:#82725a; stroke:none;" d="M84 117L85 118L84 117z"/>
<path style="fill:#655947; stroke:none;" d="M98 117L99 118L98 117z"/>
<path style="fill:#82725a; stroke:none;" d="M99 117L99 118L104 118L99 117M112 117L113 118L112 117M115 117L116 118L115 117M117 117L118 118L117 117z"/>
<path style="fill:#040303; stroke:none;" d="M123 117L125 119L123 117z"/>
<path style="fill:#82725a; stroke:none;" d="M109 118L109 123L110 122L108 120L111 120L109 118z"/>
<path style="fill:#655947; stroke:none;" d="M116 118L117 119L116 118z"/>
<path style="fill:#b3a07e; stroke:none;" d="M123 118L124 119L123 118z"/>
<path style="fill:#040303; stroke:none;" d="M129 118L130 119L129 118z"/>
<path style="fill:#82725a; stroke:none;" d="M99 119L102 122L102 119L99 119z"/>
<path style="fill:#655947; stroke:none;" d="M102.333 119.667L102.667 120.333L102.333 119.667z"/>
<path style="fill:#ffe3b3; stroke:none;" d="M109 119L108 121L110 121L109 119z"/>
<path style="fill:#655947; stroke:none;" d="M112 119L113 120L112 119z"/>
<path style="fill:#82725a; stroke:none;" d="M118 119L119 120L118 119z"/>
<path style="fill:#040303; stroke:none;" d="M125 119L127 125L128 125L125 119z"/>
<path style="fill:#655947; stroke:none;" d="M129 119L130 120L129 119z"/>
<path style="fill:#82725a; stroke:none;" d="M130 119L131 120L130 119z"/>
<path style="fill:#ffe3b3; stroke:none;" d="M92 120L93 121L92 120M101 120L102 121L101 120z"/>
<path style="fill:#b3a07e; stroke:none;" d="M110 120L111 121L110 120z"/>
<path style="fill:#82725a; stroke:none;" d="M117 120L118 121L117 120M119 120L120 121L119 120z"/>
<path style="fill:#655947; stroke:none;" d="M125 120L126 121L125 120z"/>
<path style="fill:#b3a07e; stroke:none;" d="M129 120L130 121L129 120z"/>
<path style="fill:#040303; stroke:none;" d="M130 120L130 123L131 123L130 120z"/>
<path style="fill:#82725a; stroke:none;" d="M84 121L84 122L87 122L84 121z"/>
<path style="fill:#ffe3b3; stroke:none;" d="M93 121L94 122L93 121M107 121L96 124L97 131L96 131L92 126L98 134L101 132L101 131C99.4731 128.327 100.414 127.438 103 126L101 130L105 129L104 125L109 124L107 121z"/>
<path style="fill:#655947; stroke:none;" d="M110 121L110 124L111 124L110 121z"/>
<path style="fill:#82725a; stroke:none;" d="M112 121L113 122L112 121z"/>
<path style="fill:#655947; stroke:none;" d="M118 121L119 122L118 121z"/>
<path style="fill:#82725a; stroke:none;" d="M127 121L128 122L127 121z"/>
<path style="fill:#ffe3b3; stroke:none;" d="M84 122L84 123L87 123L84 122M94 122L95 123L94 122z"/>
<path style="fill:#82725a; stroke:none;" d="M106 122L107 123L106 122z"/>
<path style="fill:#040303; stroke:none;" d="M109 122L105 131L98 132L98 133L101 134L100 138L103 132L106 133L109 122z"/>
<path style="fill:#82725a; stroke:none;" d="M111 122L112 123L111 122z"/>
<path style="fill:#b3a07e; stroke:none;" d="M118 122L119 123L118 122z"/>
<path style="fill:#82725a; stroke:none;" d="M120 122L121 123L120 122M126 122L127 123L126 122M84 123L84 124L87 124L84 123z"/>
<path style="fill:#655947; stroke:none;" d="M102 123L103 124L102 123M104 123L105 124L104 123z"/>
<path style="fill:#82725a; stroke:none;" d="M105 123L106 124L105 123M119 123L120 124L119 123M130 123L131 124L130 123M83 124L84 125L83 124M103 124L104 125L103 124M107.667 124.333L108.333 124.667L107.667 124.333M121 124L122 125L121 124z"/>
<path style="fill:#655947; stroke:none;" d="M82.3333 125.667L82.6667 126.333L82.3333 125.667z"/>
<path style="fill:#ffe3b3; stroke:none;" d="M83 125L86 129L83 125z"/>
<path style="fill:#82725a; stroke:none;" d="M92 125L93 126L92 125z"/>
<path style="fill:#b3a07e; stroke:none;" d="M104.333 125.667L104.667 126.333L104.333 125.667z"/>
<path style="fill:#82725a; stroke:none;" d="M105.667 125.333L106.333 125.667L105.667 125.333z"/>
<path style="fill:#655947; stroke:none;" d="M110 125L111 126L110 125z"/>
<path style="fill:#82725a; stroke:none;" d="M120 125L121 126L120 125M127 125L128 126L127 125M84 126L85 127L84 126M89 126L90 127L89 126M93 126L94 127L93 126z"/>
<path style="fill:#655947; stroke:none;" d="M100 126L101 127L100 126z"/>
<path style="fill:#82725a; stroke:none;" d="M100 129L103 126L100 129z"/>
<path style="fill:#b3a07e; stroke:none;" d="M110 126L111 127L110 126z"/>
<path style="fill:#82725a; stroke:none;" d="M85 127L86 128L85 127z"/>
<path style="fill:#ffe3b3; stroke:none;" d="M89 127L91 135L88 133L88 137L94 136L89 127z"/>
<path style="fill:#82725a; stroke:none;" d="M92 127L93 128L92 127M94 127L95 128L94 127M97 127L98 128L97 127z"/>
<path style="fill:#b3a07e; stroke:none;" d="M99 127L100 128L99 127z"/>
<path style="fill:#82725a; stroke:none;" d="M109 127L110 128L109 127z"/>
<path style="fill:#655947; stroke:none;" d="M121 127L122 128L121 127z"/>
<path style="fill:#b3a07e; stroke:none;" d="M122 127L121 129L123 129L122 127z"/>
<path style="fill:#82725a; stroke:none;" d="M83 128L84 129L83 128z"/>
<path style="fill:#b3a07e; stroke:none;" d="M86 128L87 129L86 128z"/>
<path style="fill:#82725a; stroke:none;" d="M90 128L91 129L90 128M93 128L94 129L93 128z"/>
<path style="fill:#655947; stroke:none;" d="M99 128L100 129L99 128z"/>
<path style="fill:#82725a; stroke:none;" d="M108 128L109 129L108 128z"/>
<path style="fill:#655947; stroke:none;" d="M84 129L85 130L84 129z"/>
<path style="fill:#82725a; stroke:none;" d="M85.6667 129.333L86.3333 129.667L85.6667 129.333M89 129L90 130L89 129M95 129L96 130L95 129z"/>
<path style="fill:#655947; stroke:none;" d="M97 129L98 130L97 129z"/>
<path style="fill:#040303; stroke:none;" d="M99.6667 129.333L100.333 129.667L99.6667 129.333z"/>
<path style="fill:#b3a07e; stroke:none;" d="M104 129L105 130L104 129z"/>
<path style="fill:#655947; stroke:none;" d="M106 129L107 130L106 129z"/>
<path style="fill:#82725a; stroke:none;" d="M107 129L108 130L107 129M96 130L97 131L96 130M99 130L99 131L104 131L99 130z"/>
<path style="fill:#655947; stroke:none;" d="M104 130L105 131L104 130z"/>
<path style="fill:#82725a; stroke:none;" d="M91 131L92 132L91 131M98 131L99 132L98 131M88 132L89 133L88 132M94 132L95 133L94 132z"/>
<path style="fill:#b3a07e; stroke:none;" d="M95 132L96 133L95 132z"/>
<path style="fill:#82725a; stroke:none;" d="M99.6667 132.333L100.333 132.667L99.6667 132.333M103 132L103 135L106 134L106 133L103 132M89 133L91 135L89 133z"/>
<path style="fill:#655947; stroke:none;" d="M90 133L91 134L90 133z"/>
<path style="fill:#82725a; stroke:none;" d="M92 133L93 134L92 133M96 133L97 134L96 133z"/>
<path style="fill:#655947; stroke:none;" d="M98 133L99 134L98 133z"/>
<path style="fill:#ffe3b3; stroke:none;" d="M103 133L104 134L103 133z"/>
<path style="fill:#82725a; stroke:none;" d="M84.6667 134.333L85.3333 134.667L84.6667 134.333M93 134L94 135L93 134M97 134L98 135L97 134z"/>
<path style="fill:#b3a07e; stroke:none;" d="M98 134L99 135L98 134z"/>
<path style="fill:#82725a; stroke:none;" d="M99 134L100 135L99 134z"/>
<path style="fill:#655947; stroke:none;" d="M100.333 134.667L100.667 135.333L100.333 134.667z"/>
<path style="fill:#82725a; stroke:none;" d="M86 135L87 136L86 135z"/>
<path style="fill:#b3a07e; stroke:none;" d="M91.3333 135.667L91.6667 136.333L91.3333 135.667z"/>
<path style="fill:#82725a; stroke:none;" d="M92 135L93 139L94 139L92 135M94 135L95 136L94 135z"/>
<path style="fill:#655947; stroke:none;" d="M95 135L96 136L95 135z"/>
<path style="fill:#ffe3b3; stroke:none;" d="M98 135L98 137L100 137L100 135L98 135z"/>
<path style="fill:#655947; stroke:none;" d="M103 135L104 136L103 135z"/>
<path style="fill:#82725a; stroke:none;" d="M84 136L85 137L84 136M87 136L88 137L87 136M89 136L91 138L89 136z"/>
<path style="fill:#040303; stroke:none;" d="M92 136L93 137L92 136z"/>
<path style="fill:#82725a; stroke:none;" d="M96.6667 136.333L97.3333 136.667L96.6667 136.333M102 136L103 137L102 136z"/>
<path style="fill:#655947; stroke:none;" d="M88.3333 137.667L88.6667 138.333L88.3333 137.667z"/>
<path style="fill:#040303; stroke:none;" d="M89.3333 137.667L89.6667 138.333L89.3333 137.667M93 137L94 138L93 137z"/>
<path style="fill:#82725a; stroke:none;" d="M92 141L92 142L99 140L100 138L92 141z"/>
<path style="fill:#655947; stroke:none;" d="M90 138L91 139L90 138z"/>
<path style="fill:#040303; stroke:none;" d="M98 138L99 139L98 138z"/>
<path style="fill:#655947; stroke:none;" d="M99.6667 138.333L100.333 138.667L99.6667 138.333z"/>
<path style="fill:#82725a; stroke:none;" d="M101 138L102 139L101 138M89 139L90 140L89 139z"/>
<path style="fill:#b3a07e; stroke:none;" d="M90 139L91 140L90 139z"/>
<path style="fill:#040303; stroke:none;" d="M91 145L98 142L97 139L91 145z"/>
<path style="fill:#b3a07e; stroke:none;" d="M91 141L92 142L91 141z"/>
<path style="fill:#655947; stroke:none;" d="M96 141L97 142L96 141z"/>
<path style="fill:#82725a; stroke:none;" d="M84 142L85 143L84 142z"/>
<path style="fill:#655947; stroke:none;" d="M91 142L92 143L91 142z"/>
<path style="fill:#82725a; stroke:none;" d="M95 142L96 143L95 142M97 142L98 143L97 142z"/>
<path style="fill:#b3a07e; stroke:none;" d="M83 144L84 145L83 144z"/>
<path style="fill:#82725a; stroke:none;" d="M88 146L92 145L88 146M92 144L92 145L95 145L92 144M83 145L84 146L83 145z"/>
<path style="fill:#040303; stroke:none;" d="M89 145L90 146L89 145M88.3333 146.667L88.6667 147.333L88.3333 146.667z"/>
<path style="fill:#82725a; stroke:none;" d="M83 147L84 148L83 147M85 147L86 148L85 147z"/>
<path style="fill:#b3a07e; stroke:none;" d="M86 147L87 148L86 147z"/>
<path style="fill:#82725a; stroke:none;" d="M82 148L83 149L82 148z"/>
<path style="fill:#b3a07e; stroke:none;" d="M84 148L85 149L84 148z"/>
<path style="fill:#040303; stroke:none;" d="M85 148L85 150L87 150L85 148z"/>
<path style="fill:#655947; stroke:none;" d="M86 148L87 149L86 148z"/>
<path style="fill:#82725a; stroke:none;" d="M88 148L89 149L88 148z"/>
<path style="fill:#655947; stroke:none;" d="M84 149L85 150L84 149z"/>
<path style="fill:#82725a; stroke:none;" d="M84 150L84 151L87 151L84 150z"/>
<path style="fill:#655947; stroke:none;" d="M82 154L83 155L82 154M82 159L83 160L82 159z"/>
<path style="fill:#b3a07e; stroke:none;" d="M72 169L73 170L72 169z"/>
<path style="fill:#82725a; stroke:none;" d="M71 170L70 172L71 170z"/>
<path style="fill:#655947; stroke:none;" d="M72 170L73 171L72 170z"/>
<path style="fill:#82725a; stroke:none;" d="M73 170L73 171L76 172L73 170z"/>
<path style="fill:#040303; stroke:none;" d="M78 182C77.1499 179.426 76.9368 174.609 75.1528 172.623C73.1748 170.421 70.0852 172.278 70.7515 175.044C71.5682 178.434 75.2482 180.404 78 182z"/>
<path style="fill:#655947; stroke:none;" d="M71.3333 173.667L71.6667 174.333L71.3333 173.667z"/>
<path style="fill:#b3a07e; stroke:none;" d="M72 173L73 174L72 173z"/>
<path style="fill:#82725a; stroke:none;" d="M73 173L74 174L73 173M76 173L77 174L76 173z"/>
<path style="fill:#b3a07e; stroke:none;" d="M69.3333 174.667L69.6667 175.333L69.3333 174.667z"/>
<path style="fill:#ffe3b3; stroke:none;" d="M72.6667 174.333L73.3333 174.667L72.6667 174.333z"/>
<path style="fill:#82725a; stroke:none;" d="M72.6667 175.333L73.3333 175.667L72.6667 175.333M76 175L77 176L76 175z"/>
<path style="fill:#655947; stroke:none;" d="M82 175L83 176L82 175z"/>
<path style="fill:#82725a; stroke:none;" d="M70 176L71 177L70 176M75.3333 176.667L75.6667 177.333L75.3333 176.667M71 177L72 178L71 177M71 179L71 180L74 180L71 179M76 178L77 179L76 178z"/>
<path style="fill:#ffe3b3; stroke:none;" d="M72 179L73 183L77 183L77 182L72 179z"/>
<path style="fill:#82725a; stroke:none;" d="M77 179L78 180L77 179M70 180L71 181L70 180z"/>
<path style="fill:#b3a07e; stroke:none;" d="M74 180L76 182L74 180z"/>
<path style="fill:#655947; stroke:none;" d="M75 180L76 181L75 180z"/>
<path style="fill:#b3a07e; stroke:none;" d="M69 181L70 182L69 181z"/>
<path style="fill:#82725a; stroke:none;" d="M76 181L77 182L76 181z"/>
<path style="fill:#655947; stroke:none;" d="M69 182L70 183L69 182z"/>
<path style="fill:#82725a; stroke:none;" d="M72 182L73 183L72 182M74 182L75 183L74 182z"/>
<path style="fill:#b3a07e; stroke:none;" d="M77.3333 182.667L77.6667 183.333L77.3333 182.667z"/>
<path style="fill:#82725a; stroke:none;" d="M73 183L74 184L73 183M75.6667 183.333L76.3333 183.667L75.6667 183.333z"/>
<path style="fill:#b3a07e; stroke:none;" d="M69 184L70 185L69 184z"/>
<path style="fill:#655947; stroke:none;" d="M77 184L78 185L77 184z"/>
<path style="fill:#82725a; stroke:none;" d="M72 185L72 186L76 187L72 185M78 185L79 186L78 185M70.6667 186.333L71.3333 186.667L70.6667 186.333M79 186L80 187L79 186z"/>
<path style="fill:#655947; stroke:none;" d="M82 186L83 187L82 186z"/>
<path style="fill:#82725a; stroke:none;" d="M74 187L75 188L74 187M78 187L79 188L78 187M77 188L78 189L77 188M74 189L74 190L77 190L74 189M81 189L82 190L81 189M80 190L81 191L80 190z"/>
</svg>
