<?xml version="1.0" standalone="no"?>
<!DOCTYPE svg PUBLIC "-//W3C//DTD SVG 20010904//EN"
 "http://www.w3.org/TR/2001/REC-SVG-20010904/DTD/svg10.dtd">
<svg version="1.0" xmlns="http://www.w3.org/2000/svg"
 width="1080.000000pt" height="1080.000000pt" viewBox="0 0 1080.000000 1080.000000"
 preserveAspectRatio="xMidYMid meet">

<g transform="translate(0.000000,1080.000000) scale(0.100000,-0.100000)"
fill="#000000" stroke="none">
<path d="M0 5400 l0 -5400 5400 0 5400 0 0 5400 0 5400 -5400 0 -5400 0 0
-5400z m9222 4194 c3 -3 -2 -26 -13 -52 -10 -26 -30 -92 -44 -147 -23 -89 -70
-212 -86 -225 -15 -13 -62 -149 -74 -218 -16 -93 -58 -228 -80 -259 -10 -14
-27 -23 -42 -23 -14 0 -71 -13 -127 -30 -63 -18 -177 -39 -301 -55 -214 -27
-412 -65 -458 -86 -35 -16 -57 -56 -57 -105 0 -27 8 -44 33 -69 27 -27 43 -34
93 -40 32 -3 75 -13 94 -22 37 -17 245 -42 345 -43 33 0 92 -9 130 -20 38 -11
80 -20 93 -20 49 0 43 -21 -95 -320 -19 -41 -45 -102 -58 -135 -12 -33 -61
-135 -109 -227 -47 -92 -99 -202 -115 -245 -16 -43 -54 -132 -84 -198 -30 -66
-62 -145 -71 -175 -20 -63 -32 -89 -155 -340 -93 -192 -253 -451 -339 -550
-46 -52 -109 -136 -197 -262 -63 -88 -146 -187 -228 -267 l-75 -74 -54 18
c-29 10 -75 27 -102 37 -47 19 -165 48 -354 88 -51 11 -117 26 -145 35 -29 8
-101 19 -162 25 -60 6 -153 17 -205 26 -266 42 -598 47 -842 14 -120 -17 -173
-50 -166 -107 4 -33 8 -35 216 -57 89 -10 169 -25 210 -39 37 -13 126 -45 197
-70 261 -91 682 -279 693 -308 7 -17 -200 -102 -513 -210 -110 -38 -209 -73
-220 -79 -11 -5 -63 -22 -115 -39 -52 -16 -185 -59 -295 -96 -287 -95 -367
-115 -721 -175 -34 -5 -80 -10 -103 -10 -41 0 -46 -4 -188 -147 -80 -82 -169
-177 -198 -213 -29 -36 -80 -91 -115 -123 -34 -32 -60 -60 -58 -61 2 -1 118 2
258 7 140 5 309 10 376 10 115 1 124 -1 180 -29 32 -16 66 -40 76 -54 23 -33
37 -109 45 -246 5 -102 4 -116 -16 -157 -21 -44 -66 -77 -106 -77 -9 0 -29 -7
-44 -15 -16 -8 -65 -17 -109 -21 l-79 -7 -5 -161 c-2 -88 -1 -192 2 -231 l5
-70 65 -3 c36 -2 122 4 192 12 272 34 417 13 455 -65 123 -257 155 -352 229
-674 20 -88 42 -185 49 -215 7 -30 31 -116 53 -190 116 -387 114 -377 83 -447
-22 -47 -62 -73 -114 -73 -19 0 -55 -9 -80 -20 -57 -26 -240 -40 -479 -39 -92
0 -172 -2 -177 -5 -6 -4 -169 -9 -363 -12 -194 -4 -387 -8 -428 -10 -41 -3
-167 -6 -280 -8 -113 -3 -306 -9 -430 -15 -337 -17 -903 -27 -1005 -18 -49 4
-124 11 -165 15 -41 4 -164 3 -273 -2 -176 -7 -204 -6 -243 9 -70 27 -77 50
-65 208 20 261 31 425 36 587 7 211 21 345 45 443 11 43 25 140 31 215 17 212
26 222 249 271 115 25 453 60 613 64 l117 2 1 25 c1 14 3 130 5 258 l4 234
-33 -8 c-17 -5 -68 -9 -112 -9 -44 -1 -153 -7 -242 -14 -153 -12 -164 -12
-199 5 -21 11 -51 36 -68 57 -27 33 -31 48 -34 110 -5 87 12 183 36 216 42 57
61 63 209 71 76 5 190 14 253 20 91 10 135 9 212 -1 78 -10 121 -10 211 0 144
15 428 30 579 31 162 0 189 13 254 122 18 32 62 93 97 135 35 43 75 96 89 118
14 23 68 89 119 149 52 59 107 124 122 144 16 20 73 87 127 147 54 61 120 139
147 175 27 36 85 112 128 170 44 58 117 151 162 207 46 56 83 106 83 112 0 6
4 11 9 11 5 0 28 26 52 57 49 64 50 66 205 243 61 69 145 170 187 225 133 172
300 367 473 554 33 36 95 107 136 156 42 50 134 151 204 225 70 74 159 173
198 220 39 47 175 193 302 325 127 132 259 272 292 312 34 40 107 111 163 158
55 48 105 96 112 106 6 10 17 19 23 19 6 0 63 53 126 118 149 152 305 296 393
361 39 29 75 58 80 64 6 7 31 23 55 36 81 43 227 152 239 177 6 14 11 38 11
55 0 24 -7 32 -35 46 -52 25 -107 6 -235 -76 -58 -38 -120 -76 -139 -86 -19
-9 -75 -43 -125 -74 -50 -32 -124 -77 -164 -100 -41 -24 -104 -69 -140 -100
-37 -31 -94 -77 -127 -101 -33 -24 -127 -98 -210 -165 -82 -66 -165 -132 -184
-145 -19 -13 -82 -66 -140 -118 -58 -52 -162 -141 -231 -197 -156 -129 -309
-264 -536 -475 -98 -91 -227 -210 -289 -265 -61 -55 -153 -147 -205 -205 -52
-57 -162 -175 -245 -261 -165 -171 -240 -256 -298 -333 -21 -28 -70 -86 -108
-128 -85 -94 -109 -123 -109 -136 0 -6 -3 -12 -7 -14 -20 -8 -139 -155 -218
-268 -134 -190 -165 -230 -176 -230 -14 0 -4 46 28 130 14 36 42 119 64 184
40 122 99 235 200 387 32 47 77 122 102 166 24 45 72 119 105 166 34 48 82
123 108 169 75 133 167 268 334 493 86 116 166 224 178 242 12 17 76 91 142
165 66 73 120 135 120 138 0 3 82 88 181 190 99 102 204 214 234 250 53 66
162 174 202 201 12 8 58 50 103 92 44 42 83 77 86 77 7 0 105 70 174 124 101
80 607 413 750 493 120 67 348 183 400 203 81 32 117 48 195 85 39 19 147 61
240 94 94 32 189 66 211 74 23 8 81 20 130 26 49 6 114 18 144 27 99 28 173
42 315 62 136 19 316 28 327 16z"/>
</g>
</svg>
